<svg xmlns="http://www.w3.org/2000/svg" width="32" height="32" viewBox="0 0 8.467 8.467"><path fill-rule="evenodd" d="M 4.0019531 1.0039062 C 2.3572464 1.0039062 0.99609375 2.3553008 0.99609375 4 L 0.99609375 28 C 0.99609375 29.644661 2.3572464 31.003906 4.0019531 31.003906 L 28 31.003906 C 29.644706 31.003906 30.996094 29.644661 30.996094 28 L 30.996094 4 C 30.996094 2.3553008 29.644706 1.0039062 28 1.0039062 L 4.0019531 1.0039062 z M 4.0019531 2.9960938 L 28 2.9960938 C 28.571293 2.9960938 29.003906 3.4286866 29.003906 4 L 29.003906 9 L 10 9 C 8.6482928 8.9811024 8.6482928 11.018482 10 11 L 29.003906 11 L 29.003906 28 C 29.003906 28.571238 28.571293 29.003906 28 29.003906 L 4.0019531 29.003906 C 3.4306594 29.003906 2.9960938 28.571238 2.9960938 28 L 2.9960938 11 L 6 11 C 7.3517072 11.018898 7.3517072 8.9815181 6 9 L 2.9960938 9 L 2.9960938 4 C 2.9960938 3.4286866 3.4306594 2.9960938 4.0019531 2.9960938 z M 6 5 C 5.4477056 5 4.999986 5.4476976 5 6 C 5.0000068 6.5522646 5.4477203 7 6 7 C 6.5522797 7 6.9999932 6.5522646 7 6 C 7.000014 5.4476976 6.5522944 5 6 5 z M 10 5 C 9.4477056 5 8.999986 5.4476976 9 6 C 9.0000068 6.5522646 9.4477203 7 10 7 C 10.55228 7 10.999993 6.5522646 11 6 C 11.000014 5.4476976 10.552294 5 10 5 z M 14 5 C 13.447706 5 12.999986 5.4476976 13 6 C 13.000007 6.5522646 13.44772 7 14 7 C 14.55228 7 14.999993 6.5522646 15 6 C 15.000014 5.4476976 14.552294 5 14 5 z M 10.001953 15 A 1.000252 1.000252 0 1 0 10.001953 17 L 21.998047 17 A 1.000252 1.000252 0 1 0 21.998047 15 L 10.001953 15 z M 9.8984375 19 A 1.001567 1.001567 0 0 0 10.001953 21.001953 L 21.998047 21.001953 A 1.0002331 1.0002331 0 0 0 21.998047 19 L 10.001953 19 A 1.0001001 1.0001001 0 0 0 9.8984375 19 z M 9.8984375 23.001953 A 1.0015858 1.0015858 0 0 0 10.001953 25.001953 L 15.996094 25.001953 A 1.000252 1.000252 0 1 0 15.996094 23.001953 L 10.001953 23.001953 A 1.0001001 1.0001001 0 0 0 9.8984375 23.001953 z " color="#000" font-family="sans-serif" font-weight="400" overflow="visible" paint-order="stroke fill markers" transform="scale(.26458)" style="line-height:normal;font-variant-ligatures:normal;font-variant-position:normal;font-variant-caps:normal;font-variant-numeric:normal;font-variant-alternates:normal;font-feature-settings:normal;text-indent:0;text-align:start;text-decoration-line:none;text-decoration-style:solid;text-decoration-color:#000;text-transform:none;text-orientation:mixed;shape-padding:0;isolation:auto;mix-blend-mode:normal"/></svg>