<svg xmlns="http://www.w3.org/2000/svg" width="75" viewBox="0 0 75 75" height="75" version="1.0"><defs><clipPath id="a"><path d="M 0.960938 0 L 73.710938 0 L 73.710938 75 L 0.960938 75 Z M 0.960938 0"/></clipPath></defs><g clip-path="url(#a)"><path fill="#EABF5F" d="M 68.65625 54.875 L 74.417969 58.488281 L 72.140625 52.871094 L 69.035156 53.25 L 68.890625 53.265625 L 66.484375 52.25 L 61.164062 45.269531 L 58.261719 34.476562 L 58.246094 34.402344 L 58.203125 34.257812 L 58.203125 34.226562 L 58.1875 34.214844 L 55.796875 21.925781 L 55.78125 21.851562 L 47.601562 15.917969 L 47.410156 15.859375 L 37.570312 16.902344 L 37.570312 16.945312 L 34.871094 12.273438 L 34.695312 11.914062 L 34.886719 5.511719 L 29.390625 1.929688 L 29.097656 1.742188 L 26.386719 0 L 21.339844 1.582031 L 21.265625 1.597656 L 21.136719 1.640625 L 11.484375 2.21875 L 3.785156 12.667969 L 3.726562 12.769531 L 0.941406 27.800781 L 6.042969 42.832031 L 6.058594 42.875 L 8.871094 45.707031 L 11.816406 58.15625 L 11.875 58.328125 L 11.832031 58.371094 L 11.90625 58.414062 L 14.707031 65.960938 L 13.480469 68.832031 L 15.203125 69.863281 L 15.246094 70.9375 L 15.246094 70.953125 L 15.113281 71.125 L 14.414062 71.96875 L 14.617188 74.550781 L 19.765625 74.925781 L 19.910156 74.941406 L 19.984375 74.941406 L 24.476562 73.808594 L 23.671875 69.617188 L 22.257812 66.078125 L 22.199219 65.742188 L 23.804688 60.390625 L 24.460938 58.777344 L 24.535156 58.605469 L 27.902344 50.277344 L 28.207031 49.914062 L 28.425781 49.796875 L 31.679688 48.621094 L 31.679688 48.5625 L 36.257812 43.703125 L 38.125 48.765625 L 38.195312 48.925781 L 41.230469 52.972656 L 42.644531 56.90625 L 41.898438 59.488281 L 38.851562 63.390625 L 35.511719 62.914062 L 33.429688 64.886719 L 34.40625 66.628906 L 34.625 66.628906 L 41.492188 66.816406 L 45.210938 63.21875 L 47.90625 58.820312 L 47.996094 58.675781 L 48.972656 57.09375 L 48.988281 57.066406 L 49.292969 54.960938 L 47.25 51.21875 L 46.683594 44.09375 L 46.742188 43.921875 L 48.636719 39.277344 L 49.410156 39.757812 L 49.976562 42.65625 L 52.996094 48.898438 L 53.039062 49 L 55.636719 54.367188 L 56.582031 60.128906 L 55.765625 63.84375 L 54.6875 63.667969 L 52.515625 66.351562 L 53.914062 68.0625 L 55.359375 68.035156 L 55.5625 68.035156 L 60.492188 67.960938 L 60.945312 64.015625 L 60.957031 63.84375 L 61.660156 57.777344 L 61.660156 57.71875 L 59.691406 53.800781 L 59.632812 53.613281 L 58.582031 44.964844 L 63.832031 52.132812 L 63.859375 52.160156 L 68.484375 54.746094 Z M 69.066406 53.785156 L 72.375 56.789062 L 68.789062 54.527344 Z M 71.910156 53.277344 L 73.570312 57.371094 L 69.386719 53.582031 Z M 68.496094 54.28125 L 67.15625 52.945312 L 68.746094 53.613281 Z M 36.402344 43.0625 L 33.28125 36.941406 L 33.296875 36.914062 L 39.363281 39.914062 Z M 19.050781 58.039062 L 20.539062 61.273438 L 20.875 63.796875 L 12.402344 58.285156 L 17.023438 52.800781 L 19.632812 54.410156 L 18.875 57.558594 Z M 21.484375 2.320312 L 25.992188 7.75 L 23.542969 10.546875 L 20.058594 8.707031 Z M 34.433594 12.363281 L 31.605469 18.050781 L 29.769531 13.828125 L 29.78125 13.667969 L 30.058594 13.1875 L 30.058594 13.21875 Z M 33.3125 36.519531 L 33.296875 36.507812 C 33.953125 36.230469 37.089844 35.230469 39.21875 34.5625 L 39.539062 39.597656 Z M 19.78125 8.96875 L 19.984375 9.070312 L 23.164062 10.765625 C 22.726562 10.953125 21.921875 11.289062 21.121094 11.621094 C 19.734375 12.21875 18.832031 12.59375 18.832031 12.59375 L 16.308594 13.234375 L 19.707031 8.921875 Z M 29.78125 12.914062 L 29.449219 13.523438 L 23.863281 10.738281 L 26.152344 8.125 Z M 35.996094 31.167969 L 29.039062 29.746094 L 29.78125 26.058594 L 31.707031 24.058594 Z M 38.96875 34.257812 C 38.386719 34.429688 37.292969 34.78125 36.199219 35.140625 C 34.84375 35.578125 34.054688 35.839844 33.574219 36.011719 L 36.402344 31.734375 Z M 33.0625 36.113281 L 29.449219 30.195312 L 36.082031 31.542969 Z M 27.421875 33.402344 L 24.578125 34.679688 L 24.488281 34.722656 L 24.417969 34.75 L 20.933594 34.054688 L 20.757812 34.011719 L 20.320312 31.53125 L 24.417969 30.253906 L 27.230469 30.816406 Z M 24.402344 35.128906 L 21.878906 45.445312 L 20.597656 41.945312 L 20.917969 34.429688 Z M 23.570312 11 L 23.628906 11.027344 L 29.199219 13.796875 C 28.863281 14.089844 28.179688 14.699219 27.171875 15.597656 L 27.113281 15.640625 L 26.808594 19.761719 L 28.164062 24.261719 L 24.519531 25.042969 L 20.597656 24.332031 L 20.933594 22.230469 L 21.472656 19.339844 L 18.976562 12.957031 C 19.414062 12.738281 21.9375 11.679688 23.570312 11 Z M 29.535156 25.796875 L 28.527344 24.464844 L 28.515625 24.203125 L 27.171875 19.734375 L 27.230469 18.949219 L 28.964844 18.992188 L 31.402344 23.855469 Z M 28.980469 18.617188 L 27.261719 18.570312 L 27.464844 15.816406 C 27.800781 15.511719 28.222656 15.132812 28.585938 14.800781 L 29.753906 17.105469 Z M 25.789062 30.164062 L 24.402344 29.890625 L 22.59375 30.457031 L 24.589844 29.511719 L 24.589844 29.410156 L 24.589844 29.496094 Z M 24.488281 27.335938 L 21.324219 24.839844 L 24.519531 25.421875 L 27.59375 24.753906 Z M 20.769531 18.585938 L 19.210938 18.863281 L 17.871094 17.585938 L 18.378906 16.28125 L 19.632812 15.699219 Z M 19.296875 19.210938 L 20.902344 18.921875 L 21.09375 19.398438 L 20.582031 22.183594 L 20.246094 24.273438 L 20.203125 24.40625 L 17.039062 27.308594 Z M 20.480469 24.636719 L 24.316406 27.65625 L 24.242188 29.265625 L 20.160156 31.195312 L 16.921875 27.886719 Z M 24.957031 29.28125 L 25.015625 27.363281 L 28.25 24.679688 L 29.375 26.191406 L 28.675781 29.671875 L 27.304688 30.585938 Z M 29.34375 18.921875 L 31.269531 18.398438 L 31.519531 23.246094 Z M 29.449219 18.527344 L 30.175781 17.105469 L 28.878906 14.554688 C 29.113281 14.351562 29.316406 14.160156 29.449219 14.046875 L 31.195312 18.050781 Z M 15.929688 13.710938 L 18.597656 13.03125 L 19.503906 15.351562 L 18.089844 16.003906 L 17.503906 17.511719 L 15.84375 17.789062 L 14.851562 15.683594 L 14.75 15.21875 Z M 15.609375 18.152344 L 14.808594 20.109375 L 14.835938 16.511719 Z M 14.792969 21.097656 L 16.003906 18.136719 L 17.59375 17.859375 L 18.949219 19.109375 L 16.644531 27.292969 L 14.648438 21.910156 Z M 16.511719 27.972656 L 19.953125 31.5 L 20.332031 33.71875 L 11.089844 27.089844 L 11.089844 27.03125 L 11.058594 27.03125 L 14.382812 22.273438 Z M 20.421875 34.226562 L 20.4375 34.328125 L 20.449219 34.328125 L 13.933594 40.886719 L 10.550781 33.183594 L 11.046875 27.496094 Z M 20.539062 34.765625 L 20.246094 41.394531 L 14.371094 40.976562 Z M 21.71875 46.082031 L 20.128906 52.566406 L 20.550781 42.90625 Z M 24.535156 36.085938 L 25.523438 40.265625 L 22.347656 45.050781 Z M 24.664062 35.039062 L 27.800781 33.617188 L 27.609375 30.890625 L 27.667969 30.789062 L 28.878906 29.976562 L 32.800781 36.390625 L 25.847656 40.015625 Z M 39.277344 34.054688 L 36.605469 31.414062 L 38.429688 28.671875 L 44.84375 30.339844 Z M 45.09375 30.601562 L 44.789062 36.476562 L 39.699219 34.214844 Z M 38.167969 28.394531 L 36.375 31.09375 L 32.128906 24.058594 C 34.535156 22.910156 37.890625 21.328125 39.058594 20.808594 Z M 35.558594 22.039062 C 33.953125 22.792969 32.347656 23.5625 31.910156 23.765625 L 31.632812 18.425781 L 31.648438 18.425781 C 31.664062 18.425781 33.589844 19.007812 35.5 19.558594 C 37.335938 20.097656 38.3125 20.371094 38.851562 20.515625 C 38.328125 20.75 37.367188 21.199219 35.558594 22.039062 Z M 26.53125 8.023438 L 29.082031 2.65625 L 29.972656 12.578125 Z M 14.53125 14.902344 L 11.863281 2.785156 L 19.414062 8.691406 Z M 14.371094 15.496094 L 14.488281 15.757812 L 14.429688 21.039062 L 14.328125 21.269531 L 4.921875 13.289062 Z M 14.121094 21.5625 C 12.242188 22.476562 9.019531 24.042969 6.261719 25.363281 L 7.605469 16.0625 Z M 6.042969 25.871094 L 6.203125 25.796875 C 8.054688 24.898438 10.636719 23.664062 14.195312 21.9375 L 10.59375 27.074219 C 9.894531 27.117188 7.996094 27.25 6.101562 27.378906 C 4.90625 27.464844 3.710938 27.539062 2.820312 27.613281 C 2.644531 27.625 2.5 27.640625 2.355469 27.640625 C 3.011719 27.320312 4.148438 26.785156 6.042969 25.871094 Z M 1.335938 27.699219 L 2.398438 21.910156 L 5.78125 25.582031 C 3.507812 26.683594 1.65625 27.566406 1.335938 27.699219 Z M 10.695312 27.421875 L 10.230469 32.734375 L 5.226562 27.785156 C 7.167969 27.65625 9.367188 27.511719 10.695312 27.421875 Z M 13.65625 41.179688 L 9.46875 45.386719 L 10.476562 33.953125 Z M 14.035156 41.308594 L 20.128906 41.742188 L 20.21875 41.992188 L 19.691406 54.019531 L 15.417969 51.394531 L 9.574219 45.761719 Z M 19.242188 57.574219 L 20 54.453125 L 20.011719 54.441406 L 20.058594 54.441406 L 20.070312 54.410156 L 21.9375 53.394531 L 24.050781 58.359375 L 19.269531 57.617188 Z M 20.171875 53.933594 L 22.082031 46.082031 L 25.640625 40.742188 L 27.769531 49.667969 L 27.726562 49.78125 Z M 28.0625 49.332031 L 25.933594 40.394531 L 32.757812 36.839844 L 32.683594 37.449219 Z M 39.886719 39.453125 L 39.582031 34.5625 L 44.570312 36.78125 Z M 45.457031 30.5 L 56.949219 34.34375 L 45.152344 36.519531 Z M 45.691406 30.195312 L 45.71875 30.179688 L 45.328125 30.078125 L 45.109375 30.003906 L 45.109375 30.019531 L 38.546875 28.324219 C 38.546875 28.324219 39.464844 20.648438 39.449219 20.648438 L 39.625 20.445312 L 47.382812 16.292969 L 57.792969 34.242188 Z M 55.445312 22.070312 L 57.621094 33.242188 L 48.039062 16.6875 Z M 46.550781 16.324219 L 39.40625 20.152344 L 37.746094 17.265625 Z M 39 20.167969 C 37.789062 19.847656 34.40625 18.863281 31.957031 18.136719 L 34.667969 12.679688 Z M 34.523438 5.730469 L 34.332031 12.015625 L 30.378906 12.78125 L 29.449219 2.421875 Z M 26.328125 0.390625 L 28.953125 2.105469 L 26.328125 7.601562 L 21.589844 1.886719 Z M 21.179688 2.003906 L 19.734375 8.472656 L 12.140625 2.539062 Z M 11.496094 2.828125 L 14.210938 15.089844 L 4.175781 12.753906 Z M 7.285156 15.773438 L 5.925781 25.1875 L 2.5 21.460938 L 4.0625 13.03125 Z M 1.421875 28.0625 C 1.699219 28.03125 3.082031 27.945312 4.746094 27.828125 L 10.140625 33.15625 L 10.183594 33.257812 L 9.121094 45.3125 L 6.378906 42.671875 Z M 9.324219 46.054688 L 9.339844 46.039062 L 15.203125 51.683594 L 16.703125 52.613281 L 12.152344 57.996094 Z M 20.828125 64.203125 L 15.625 70.632812 L 15.449219 66.875 L 15.113281 65.976562 L 15.113281 65.960938 L 12.429688 58.75 Z M 19.78125 74.449219 L 15.785156 71.34375 L 21.761719 70.71875 Z M 13.945312 68.671875 L 14.894531 66.4375 L 15.085938 66.933594 L 15.203125 69.414062 Z M 14.808594 72.070312 L 15.230469 71.5625 L 15.8125 74.261719 L 14.984375 74.203125 Z M 16.179688 74.289062 L 15.609375 71.675781 L 19.269531 74.519531 Z M 22.097656 70.851562 L 24.007812 73.550781 L 20.160156 74.519531 Z M 23.964844 72.882812 L 22.390625 70.660156 L 23.511719 70.546875 Z M 23.351562 69.703125 L 23.441406 70.183594 L 22.140625 70.3125 L 21.953125 70.328125 L 15.800781 70.980469 L 21.046875 64.496094 L 21.9375 66.222656 Z M 21.953125 65.410156 L 21.3125 64.175781 L 21.265625 64.046875 L 20.886719 61.171875 L 20.042969 59.316406 L 22.738281 62.8125 Z M 23.5 60.257812 L 22.871094 62.375 L 19.503906 58.007812 L 24.125 58.71875 Z M 22.242188 53.207031 L 27.507812 50.320312 L 24.34375 58.140625 Z M 28.414062 49.433594 L 32.507812 38.898438 L 31.371094 48.359375 Z M 33.050781 37.535156 L 33.109375 37.390625 L 36.140625 43.339844 L 35.9375 43.558594 L 35.890625 43.617188 L 31.796875 47.984375 Z M 36.636719 43.628906 L 42.367188 43.761719 L 38.429688 48.460938 Z M 46.320312 44.050781 L 43.503906 53.960938 L 38.605469 48.808594 L 42.832031 43.761719 L 46.375 43.832031 L 46.320312 43.980469 Z M 41.578125 52.800781 L 40.367188 51.191406 L 43.386719 54.351562 L 42.832031 56.296875 Z M 42.25 59.664062 L 43.023438 56.949219 L 43.664062 54.671875 L 47.441406 58.648438 L 39.609375 62.984375 Z M 38.953125 63.84375 C 38.925781 63.855469 38.894531 63.855469 38.882812 63.855469 L 38.925781 63.828125 L 38.882812 63.753906 L 38.925781 63.753906 Z M 33.878906 64.960938 L 35.628906 63.304688 L 38.457031 63.710938 L 34.59375 66.234375 Z M 38.839844 63.886719 C 39.128906 64.160156 40.324219 65.511719 41.140625 66.453125 L 35.179688 66.292969 Z M 44.917969 62.984375 L 41.492188 66.308594 C 40.046875 64.65625 39.4375 63.957031 39.128906 63.667969 L 47.25 59.171875 Z M 46.902344 51.320312 L 48.898438 55.019531 L 48.621094 56.9375 L 47.71875 58.402344 L 43.78125 54.265625 L 46.390625 45.097656 Z M 46.523438 43.46875 L 37.714844 43.28125 L 48.171875 39.4375 Z M 36.695312 43.28125 L 39.902344 39.871094 L 44.960938 36.984375 L 48.257812 39.03125 Z M 48.78125 38.914062 L 48.695312 38.855469 L 45.445312 36.839844 L 57.839844 34.546875 L 58.101562 43.71875 L 58.054688 43.847656 L 49.671875 39.464844 Z M 50.328125 42.527344 L 49.832031 39.960938 L 57.941406 44.195312 L 53.273438 48.636719 Z M 55.855469 53.988281 L 53.695312 49.507812 L 58.945312 53.554688 Z M 56.160156 55.324219 L 60.460938 63.667969 L 56.144531 63.871094 L 56.964844 60.15625 Z M 56.058594 64.234375 L 60.171875 64.046875 L 55.765625 67.410156 Z M 54.835938 64.058594 L 55.605469 64.191406 C 54.542969 66.265625 54.105469 67.136719 53.945312 67.527344 L 52.980469 66.351562 Z M 54.25 67.6875 C 54.453125 67.25 55.082031 66.019531 55.621094 64.929688 L 55.375 67.671875 Z M 60.15625 67.601562 L 56.042969 67.65625 L 60.550781 64.21875 Z M 61.277344 57.792969 L 60.652344 63.261719 L 56.058594 54.324219 L 59.3125 53.859375 Z M 59.222656 53.292969 L 53.523438 48.898438 L 58.160156 44.488281 Z M 58.480469 44.238281 L 58.480469 44.066406 L 58.246094 35.824219 L 60.8125 45.402344 L 60.828125 45.429688 L 65.945312 52.160156 L 64.0625 51.855469 Z M 64.9375 52.363281 L 66.265625 52.582031 L 67.492188 53.800781 Z M 64.9375 52.363281"/></g></svg>